<?xml version="1.0" standalone="no"?>
<!DOCTYPE svg PUBLIC "-//W3C//DTD SVG 20010904//EN"
 "http://www.w3.org/TR/2001/REC-SVG-20010904/DTD/svg10.dtd">
<svg version="1.0" xmlns="http://www.w3.org/2000/svg"
 width="700.000000pt" height="700.000000pt" viewBox="0 0 700.000000 700.000000"
 preserveAspectRatio="xMidYMid meet">
<metadata>
Created by potrace 1.14, written by Peter Selinger 2001-2017
</metadata>
<g transform="translate(0.000000,700.000000) scale(0.100000,-0.100000)"
fill="#000000" stroke="none">
<path d="M3060 6989 c-70 -21 -139 -84 -173 -159 -29 -63 -33 -263 -7 -332 37
-100 127 -173 228 -185 l48 -5 0 -54 c-1 -30 -5 -54 -11 -54 -24 -1 -98 -13
-199 -31 -363 -67 -706 -198 -1032 -395 -70 -42 -132 -80 -138 -85 -6 -5 -49
-37 -96 -71 -47 -35 -90 -67 -96 -73 -6 -6 -39 -33 -72 -60 -65 -53 -280 -267
-351 -350 -389 -456 -642 -1041 -716 -1655 -11 -88 -14 -528 -4 -610 4 -41 11
-99 14 -128 3 -30 10 -77 16 -105 5 -29 12 -65 15 -82 11 -65 75 -305 103
-385 112 -324 260 -606 455 -864 36 -48 66 -90 66 -93 0 -4 -26 -40 -59 -82
-132 -171 -236 -360 -286 -516 -77 -246 -36 -444 116 -547 30 -20 74 -42 99
-50 49 -13 193 -17 250 -6 217 43 451 168 705 379 l80 66 126 -62 c417 -206
891 -318 1349 -318 112 0 298 10 339 18 11 2 46 6 78 10 51 5 99 12 197 30 15
3 88 21 161 40 218 56 413 129 614 229 l108 55 24 -22 c133 -121 310 -242 474
-325 392 -197 717 -121 779 182 44 215 -66 508 -316 838 -32 42 -58 79 -58 82
0 3 29 43 64 88 84 109 189 276 263 418 53 100 78 154 139 295 27 63 116 342
129 405 31 147 55 276 60 320 4 30 10 84 15 120 10 84 10 486 0 570 -4 36 -11
90 -14 120 -22 192 -97 485 -177 692 -40 102 -164 362 -214 448 -126 215 -329
473 -511 651 -97 93 -141 132 -275 242 -19 15 -98 70 -176 123 -339 227 -729
387 -1123 460 -14 3 -32 7 -40 9 -8 3 -35 7 -60 10 -25 3 -60 8 -79 10 -44 6
-45 7 -47 64 l-1 49 51 6 c67 9 148 56 186 108 46 63 59 119 56 250 -2 103 -5
121 -30 171 -27 57 -81 108 -141 138 -24 11 -107 14 -450 16 -262 1 -433 -2
-455 -8z m700 -1083 c36 -4 76 -9 90 -11 14 -2 43 -7 65 -10 23 -3 52 -8 65
-10 14 -3 41 -8 60 -11 87 -14 294 -71 400 -111 334 -126 552 -253 858 -498
41 -32 267 -260 314 -315 314 -373 513 -789 608 -1268 11 -56 22 -128 26 -160
3 -31 10 -88 14 -127 8 -71 6 -440 -4 -505 -2 -19 -7 -60 -11 -90 -13 -100
-17 -129 -29 -180 -38 -164 -53 -221 -83 -315 -213 -659 -675 -1224 -1277
-1559 -118 -66 -165 -89 -286 -141 -106 -45 -318 -116 -390 -130 -8 -2 -33 -8
-55 -13 -54 -15 -84 -20 -190 -37 -49 -7 -108 -16 -130 -20 -22 -4 -141 -8
-265 -10 -204 -3 -326 5 -474 29 -117 20 -153 28 -256 55 -421 109 -793 304
-1115 582 -158 136 -282 272 -453 494 -20 26 -103 157 -139 220 -182 314 -314
706 -349 1035 -3 30 -8 66 -11 80 -2 14 -6 120 -8 235 -3 242 6 347 55 600 28
143 85 333 150 495 29 74 148 311 166 331 8 8 14 19 14 23 0 18 155 238 243
346 66 80 246 265 330 338 70 62 249 192 340 248 130 81 411 223 425 215 1 -1
15 5 30 13 67 34 377 126 481 142 18 3 43 8 55 10 11 2 39 6 61 9 22 3 56 8
75 10 19 3 69 8 110 11 41 4 76 7 78 9 5 4 349 -3 412 -9z"/>
<path d="M3408 5415 c-2 -2 -46 -5 -98 -9 -83 -5 -152 -15 -240 -32 -14 -3
-38 -7 -55 -10 -16 -3 -54 -12 -84 -21 -29 -8 -59 -16 -65 -17 -31 -6 -122
-38 -214 -75 -173 -68 -373 -182 -527 -299 -203 -155 -436 -415 -567 -632 -96
-159 -197 -388 -233 -530 -2 -8 -11 -41 -20 -73 -78 -287 -92 -666 -35 -972
10 -55 21 -111 24 -125 10 -45 68 -234 81 -265 7 -16 23 -55 35 -85 240 -591
785 -1089 1405 -1283 103 -32 243 -65 309 -73 28 -4 54 -8 58 -10 14 -9 192
-19 328 -18 151 0 264 8 353 25 28 5 66 12 82 15 148 25 391 107 545 184 253
125 409 238 611 439 199 200 312 358 433 605 122 248 190 482 222 766 10 85
12 339 3 411 -4 35 -10 89 -13 120 -17 164 -75 379 -153 569 -154 376 -436
730 -776 974 -324 231 -707 373 -1112 412 -54 6 -293 12 -297 9z m437 -434
c16 -9 39 -34 51 -55 26 -46 26 -54 -16 -346 -11 -80 -23 -163 -25 -185 -3
-22 -8 -51 -10 -65 -2 -14 -7 -43 -10 -65 -8 -66 -85 -618 -90 -652 -4 -26 0
-34 24 -50 212 -136 286 -414 171 -643 l-18 -35 199 -265 c110 -146 205 -272
212 -280 108 -133 438 -586 447 -616 16 -46 14 -82 -6 -145 l-14 -46 -64 3
c-74 3 -113 20 -161 72 -29 31 -369 478 -732 963 l-95 127 -56 -20 c-81 -29
-224 -29 -309 0 -71 25 -139 69 -200 128 l-43 43 -167 -58 c-93 -32 -175 -61
-183 -64 -8 -3 -58 -19 -111 -36 -100 -31 -147 -31 -187 1 -89 69 -83 209 11
260 10 5 118 43 240 84 334 113 301 96 305 156 12 206 194 409 396 442 16 3
30 7 32 8 4 5 9 37 34 218 21 156 27 194 35 240 2 14 7 50 10 80 3 30 12 96
20 145 7 50 16 113 20 140 3 28 15 111 25 185 11 74 22 155 25 180 8 68 23
104 53 133 50 47 125 54 187 18z"/>
<path d="M3425 3327 c-44 -21 -92 -74 -108 -121 -55 -168 142 -317 287 -216
154 105 92 337 -92 347 -34 2 -69 -2 -87 -10z"/>
<path d="M1478 6866 c-1 -2 -39 -6 -83 -9 -70 -5 -113 -12 -200 -31 -237 -51
-515 -220 -684 -416 -213 -247 -317 -527 -318 -854 -1 -137 14 -244 47 -361
26 -87 82 -225 93 -225 4 0 52 35 106 78 54 42 113 89 132 103 41 32 257 202
349 274 36 28 96 76 135 106 38 30 77 59 85 66 54 43 473 371 506 396 23 18
151 118 284 222 134 105 266 208 295 230 29 22 69 54 90 71 l38 30 -78 58
c-193 146 -445 240 -675 252 -52 3 -100 7 -107 9 -6 2 -13 2 -15 1z"/>
<path d="M5509 6866 c-2 -2 -47 -6 -99 -9 -260 -15 -530 -121 -734 -289 l-28
-24 38 -29 c22 -16 46 -35 54 -42 15 -12 689 -539 1005 -786 93 -72 247 -193
341 -267 95 -74 216 -169 269 -210 53 -41 106 -83 118 -92 12 -10 27 -21 32
-26 93 -73 159 -122 165 -122 4 0 14 15 21 33 6 17 18 48 26 67 69 175 92 310
88 510 -3 160 -7 190 -36 300 -85 318 -273 579 -551 768 -161 110 -393 191
-589 207 -41 3 -83 8 -95 10 -12 3 -23 3 -25 1z"/>
</g>
</svg>
