<svg version="1.1" id="Capa_1" xmlns="http://www.w3.org/2000/svg" x="0" y="0" width="646.977" height="646.977" xml:space="preserve"><path fill="#b99999" d="M217.359 42.088c-21.971-19.059-49.524-29.406-78.858-29.406-25.941 0-50.8 8.242-71.88 23.835-31.199 23.125-49.103 58.548-49.127 97.147.024 19.107 4.464 37.769 13.007 54.59l96.822-75.742 90.036-70.424zm363.02-5.607c-21.044-15.57-45.902-23.799-71.867-23.799-29.322 0-56.899 10.348-78.87 29.406l90.048 70.448 96.811 75.718c8.53-16.869 12.982-35.507 12.982-54.59.011-38.61-17.905-74.021-49.104-97.183zM355.355 73.889V63.77h1.359c14.149-.012 25.641-11.551 25.641-25.7V25.688C382.343 11.515 370.828 0 356.715 0h-66.417c-14.102 0-25.628 11.515-25.653 25.688V38.07c0 14.174 11.515 25.688 25.653 25.688h1.347v10.131C149.45 89.82 39.525 211.765 39.525 355.98c0 65.25 22.524 128.432 63.602 178.967-22.933 27.359-35.988 54.818-36.12 76.223 0 10.637 3.393 19.625 9.806 26.037 6.389 6.389 15.341 9.746 26.073 9.746 23.246-.119 54-15.834 83.407-42.389 41.883 23.137 89.133 35.35 137.213 35.35 48.057 0 95.318-12.213 137.19-35.35 29.418 26.543 60.172 42.27 83.431 42.412h.144c10.48 0 19.469-3.355 25.941-9.805 6.401-6.426 9.771-15.414 9.758-26.062-.096-21.357-13.163-48.766-36.072-76.174 41.054-50.512 63.542-113.703 63.59-178.967-.06-144.203-109.95-266.148-252.133-282.079zm159.618 451.865a292.292 292.292 0 01-6.124 6.631l-.854.902a323.496 323.496 0 01-6.689 6.701 258.571 258.571 0 01-20.6 17.904l-.638.469-.962.77a320.932 320.932 0 01-6.04 4.465l-2.792 1.996a272.635 272.635 0 01-5.968 4.08l-2.069 1.322-.71.471c-2.021 1.275-4.019 2.562-6.088 3.789l-.746.482c-39.55 23.666-84.911 36.156-131.198 36.156-46.203 0-91.48-12.453-130.969-36.037l-.999-.602a240.091 240.091 0 01-6.305-3.959l-.939-.59-1.588-1.01c-2.045-1.359-4.043-2.756-6.016-4.115-.854-.613-1.708-1.215-2.695-1.926-2.058-1.504-4.115-3.008-6.245-4.656l-.794-.637-.494-.35a263.407 263.407 0 01-27.866-25.17 232.882 232.882 0 01-6.569-7.148l-.458-.492c-41.282-46.768-64.035-106.88-64.035-169.22 0-68.377 26.639-132.653 74.96-180.998 44.001-43.965 102.357-70.388 164.395-74.358 2.045-.168 4.103-.277 6.16-.349 3.478-.12 6.931-.252 10.456-.252 3.501 0 7.015.132 10.479.252 2.046.084 4.056.193 6.161.349 62.001 3.946 120.381 30.381 164.358 74.358 48.345 48.333 74.96 112.62 74.96 180.998a255.655 255.655 0 01-64.479 169.774zm-43.316-317.948c-39.55-39.598-92.178-61.375-148.151-61.375-56.009 0-108.625 21.778-148.199 61.375-39.586 39.586-61.376 92.214-61.376 148.151 0 55.973 21.79 108.59 61.376 148.211 39.585 39.551 92.226 61.34 148.199 61.34 55.962 0 108.578-21.789 148.151-61.363 39.586-39.586 61.376-92.215 61.376-148.188 0-55.973-21.778-108.589-61.376-148.151zm-29.178 289.493l-2.515 7.928-8.302-.131c-7.195-.121-12.562-6.221-14.56-8.844l-74.479-98.639a46.016 46.016 0 01-19.119 4.211 45.787 45.787 0 01-36.589-18.242l-47.984 16.412c-1.107.445-2.719.734-4.428.734-5.835 0-11.069-3.693-13.031-9.217l-.301-.938c-1.131-3.262-.926-7.051.734-10.396a13.564 13.564 0 017.893-6.979l47.852-16.352v-.854c0-23.428 17.603-42.75 40.284-45.53l15.906-114.317c.927-6.75 6.774-11.839 13.656-11.839h.638l.662.072 1.179.144c3.803.566 6.942 2.395 9.145 5.246 2.395 3.285 3.297 6.907 2.731 10.528l-16.135 115.616c14.029 7.833 23.583 22.837 23.618 40.042-.012 8.736-2.43 17.086-6.966 24.305l75.729 100.18c4.31 5.682 5.959 12.01 4.382 16.86zM323.506 338.102c-9.842.049-17.843 8.049-17.867 17.893.012 9.805 8.025 17.795 17.867 17.83 9.83 0 17.844-7.988 17.844-17.844.011-9.854-8.014-17.842-17.844-17.879z"/></svg>