<svg version="1.0" xmlns="http://www.w3.org/2000/svg" width="933.333" height="933.333" viewBox="0 0 700 700"><path d="M306 1.1c-7 2.1-13.9 8.4-17.3 15.9-2.9 6.3-3.3 26.3-.7 33.2 3.7 10 12.7 17.3 22.8 18.5l4.8.5v5.4c-.1 3-.5 5.4-1.1 5.4-2.4.1-9.8 1.3-19.9 3.1-36.3 6.7-70.6 19.8-103.2 39.5-7 4.2-13.2 8-13.8 8.5-.6.5-4.9 3.7-9.6 7.1-4.7 3.5-9 6.7-9.6 7.3-.6.6-3.9 3.3-7.2 6-6.5 5.3-28 26.7-35.1 35C77.2 232.1 51.9 290.6 44.5 352c-1.1 8.8-1.4 52.8-.4 61 .4 4.1 1.1 9.9 1.4 12.8.3 3 1 7.7 1.6 10.5.5 2.9 1.2 6.5 1.5 8.2 1.1 6.5 7.5 30.5 10.3 38.5 11.2 32.4 26 60.6 45.5 86.4 3.6 4.8 6.6 9 6.6 9.3 0 .4-2.6 4-5.9 8.2-13.2 17.1-23.6 36-28.6 51.6-7.7 24.6-3.6 44.4 11.6 54.7 3 2 7.4 4.2 9.9 5 4.9 1.3 19.3 1.7 25 .6 21.7-4.3 45.1-16.8 70.5-37.9l8-6.6 12.6 6.2c41.7 20.6 89.1 31.8 134.9 31.8 11.2 0 29.8-1 33.9-1.8 1.1-.2 4.6-.6 7.8-1 5.1-.5 9.9-1.2 19.7-3 1.5-.3 8.8-2.1 16.1-4 21.8-5.6 41.3-12.9 61.4-22.9l10.8-5.5 2.4 2.2c13.3 12.1 31 24.2 47.4 32.5 39.2 19.7 71.7 12.1 77.9-18.2 4.4-21.5-6.6-50.8-31.6-83.8-3.2-4.2-5.8-7.9-5.8-8.2 0-.3 2.9-4.3 6.4-8.8 8.4-10.9 18.9-27.6 26.3-41.8 5.3-10 7.8-15.4 13.9-29.5 2.7-6.3 11.6-34.2 12.9-40.5 3.1-14.7 5.5-27.6 6-32 .4-3 1-8.4 1.5-12 1-8.4 1-48.6 0-57-.4-3.6-1.1-9-1.4-12-2.2-19.2-9.7-48.5-17.7-69.2-4-10.2-16.4-36.2-21.4-44.8-12.6-21.5-32.9-47.3-51.1-65.1-9.7-9.3-14.1-13.2-27.5-24.2-1.9-1.5-9.8-7-17.6-12.3-33.9-22.7-72.9-38.7-112.3-46-1.4-.3-3.2-.7-4-.9-.8-.3-3.5-.7-6-1-2.5-.3-6-.8-7.9-1-4.4-.6-4.5-.7-4.7-6.4l-.1-4.9 5.1-.6c6.7-.9 14.8-5.6 18.6-10.8 4.6-6.3 5.9-11.9 5.6-25-.2-10.3-.5-12.1-3-17.1-2.7-5.7-8.1-10.8-14.1-13.8-2.4-1.1-10.7-1.4-45-1.6-26.2-.1-43.3.2-45.5.8zm70 108.3c3.6.4 7.6.9 9 1.1 1.4.2 4.3.7 6.5 1 2.3.3 5.2.8 6.5 1 1.4.3 4.1.8 6 1.1 8.7 1.4 29.4 7.1 40 11.1 33.4 12.6 55.2 25.3 85.8 49.8 4.1 3.2 26.7 26 31.4 31.5 31.4 37.3 51.3 78.9 60.8 126.8 1.1 5.6 2.2 12.8 2.6 16 .3 3.1 1 8.8 1.4 12.7.8 7.1.6 44-.4 50.5-.2 1.9-.7 6-1.1 9-1.3 10-1.7 12.9-2.9 18-3.8 16.4-5.3 22.1-8.3 31.5-21.3 65.9-67.5 122.4-127.7 155.9-11.8 6.6-16.5 8.9-28.6 14.1-10.6 4.5-31.8 11.6-39 13-.8.2-3.3.8-5.5 1.3-5.4 1.5-8.4 2-19 3.7-4.9.7-10.8 1.6-13 2-2.2.4-14.1.8-26.5 1-20.4.3-32.6-.5-47.4-2.9-11.7-2-15.3-2.8-25.6-5.5-42.1-10.9-79.3-30.4-111.5-58.2-15.8-13.6-28.2-27.2-45.3-49.4-2-2.6-10.3-15.7-13.9-22-18.2-31.4-31.4-70.6-34.9-103.5-.3-3-.8-6.6-1.1-8-.2-1.4-.6-12-.8-23.5-.3-24.2.6-34.7 5.5-60 2.8-14.3 8.5-33.3 15-49.5 2.9-7.4 14.8-31.1 16.6-33.1.8-.8 1.4-1.9 1.4-2.3 0-1.8 15.5-23.8 24.3-34.6 6.6-8 24.6-26.5 33-33.8 7-6.2 24.9-19.2 34-24.8 13-8.1 41.1-22.3 42.5-21.5.1.1 1.5-.5 3-1.3 6.7-3.4 37.7-12.6 48.1-14.2 1.8-.3 4.3-.8 5.5-1 1.1-.2 3.9-.6 6.1-.9 2.2-.3 5.6-.8 7.5-1 1.9-.3 6.9-.8 11-1.1 4.1-.4 7.6-.7 7.8-.9.5-.4 34.9.3 41.2.9z"/><path d="M340.8 158.5c-.2.2-4.6.5-9.8.9-8.3.5-15.2 1.5-24 3.2-1.4.3-3.8.7-5.5 1-1.6.3-5.4 1.2-8.4 2.1-2.9.8-5.9 1.6-6.5 1.7-3.1.6-12.2 3.8-21.4 7.5-17.3 6.8-37.3 18.2-52.7 29.9-20.3 15.5-43.6 41.5-56.7 63.2-9.6 15.9-19.7 38.8-23.3 53-.2.8-1.1 4.1-2 7.3-7.8 28.7-9.2 66.6-3.5 97.2 1 5.5 2.1 11.1 2.4 12.5 1 4.5 6.8 23.4 8.1 26.5.7 1.6 2.3 5.5 3.5 8.5 24 59.1 78.5 108.9 140.5 128.3 10.3 3.2 24.3 6.5 30.9 7.3 2.8.4 5.4.8 5.8 1 1.4.9 19.2 1.9 32.8 1.8 15.1 0 26.4-.8 35.3-2.5 2.8-.5 6.6-1.2 8.2-1.5 14.8-2.5 39.1-10.7 54.5-18.4 25.3-12.5 40.9-23.8 61.1-43.9 19.9-20 31.2-35.8 43.3-60.5 12.2-24.8 19-48.2 22.2-76.6 1-8.5 1.2-33.9.3-41.1-.4-3.5-1-8.9-1.3-12-1.7-16.4-7.5-37.9-15.3-56.9-15.4-37.6-43.6-73-77.6-97.4-32.4-23.1-70.7-37.3-111.2-41.2-5.4-.6-29.3-1.2-29.7-.9zm43.7 43.4c1.6.9 3.9 3.4 5.1 5.5 2.6 4.6 2.6 5.4-1.6 34.6-1.1 8-2.3 16.3-2.5 18.5-.3 2.2-.8 5.1-1 6.5-.2 1.4-.7 4.3-1 6.5-.8 6.6-8.5 61.8-9 65.2-.4 2.6 0 3.4 2.4 5 21.2 13.6 28.6 41.4 17.1 64.3l-1.8 3.5 19.9 26.5c11 14.6 20.5 27.2 21.2 28 10.8 13.3 43.8 58.6 44.7 61.6 1.6 4.6 1.4 8.2-.6 14.5l-1.4 4.6-6.4-.3c-7.4-.3-11.3-2-16.1-7.2-2.9-3.1-36.9-47.8-73.2-96.3l-9.5-12.7-5.6 2c-8.1 2.9-22.4 2.9-30.9 0-7.1-2.5-13.9-6.9-20-12.8l-4.3-4.3-16.7 5.8c-9.3 3.2-17.5 6.1-18.3 6.4-.8.3-5.8 1.9-11.1 3.6-10 3.1-14.7 3.1-18.7-.1-8.9-6.9-8.3-20.9 1.1-26 1-.5 11.8-4.3 24-8.4 33.4-11.3 30.1-9.6 30.5-15.6 1.2-20.6 19.4-40.9 39.6-44.2 1.6-.3 3-.7 3.2-.8.4-.5.9-3.7 3.4-21.8 2.1-15.6 2.7-19.4 3.5-24 .2-1.4.7-5 1-8 .3-3 1.2-9.6 2-14.5.7-5 1.6-11.3 2-14 .3-2.8 1.5-11.1 2.5-18.5 1.1-7.4 2.2-15.5 2.5-18 .8-6.8 2.3-10.4 5.3-13.3 5-4.7 12.5-5.4 18.7-1.8z"/><path d="M342.5 367.3c-4.4 2.1-9.2 7.4-10.8 12.1-5.5 16.8 14.2 31.7 28.7 21.6 15.4-10.5 9.2-33.7-9.2-34.7-3.4-.2-6.9.2-8.7 1zM147.8 13.4c-.1.2-3.9.6-8.3.9-7 .5-11.3 1.2-20 3.1C95.8 22.5 68 39.4 51.1 59c-21.3 24.7-31.7 52.7-31.8 85.4-.1 13.7 1.4 24.4 4.7 36.1 2.6 8.7 8.2 22.5 9.3 22.5.4 0 5.2-3.5 10.6-7.8 5.4-4.2 11.3-8.9 13.2-10.3 4.1-3.2 25.7-20.2 34.9-27.4 3.6-2.8 9.6-7.6 13.5-10.6 3.8-3 7.7-5.9 8.5-6.6 5.4-4.3 47.3-37.1 50.6-39.6 2.3-1.8 15.1-11.8 28.4-22.2 13.4-10.5 26.6-20.8 29.5-23 2.9-2.2 6.9-5.4 9-7.1l3.8-3-7.8-5.8C208.2 25 183 15.6 160 14.4c-5.2-.3-10-.7-10.7-.9-.6-.2-1.3-.2-1.5-.1zm403.1 0c-.2.2-4.7.6-9.9.9-26 1.5-53 12.1-73.4 28.9l-2.8 2.4 3.8 2.9c2.2 1.6 4.6 3.5 5.4 4.2 1.5 1.2 68.9 53.9 100.5 78.6 9.3 7.2 24.7 19.3 34.1 26.7 9.5 7.4 21.6 16.9 26.9 21 5.3 4.1 10.6 8.3 11.8 9.2 1.2 1 2.7 2.1 3.2 2.6 9.3 7.3 15.9 12.2 16.5 12.2.4 0 1.4-1.5 2.1-3.3.6-1.7 1.8-4.8 2.6-6.7 6.9-17.5 9.2-31 8.8-51-.3-16-.7-19-3.6-30-8.5-31.8-27.3-57.9-55.1-76.8-16.1-11-39.3-19.1-58.9-20.7-4.1-.3-8.3-.8-9.5-1-1.2-.3-2.3-.3-2.5-.1z"/></svg>